<svg xmlns="http://www.w3.org/2000/svg" version="1.1" xmlns:xlink="http://www.w3.org/1999/xlink" xmlns:svgjs="http://svgjs.dev/svgjs" width="100%" height="100%" viewBox="0 0 1000 600"><rect width="1000" height="600" x="0" y="0" fill="#234e70"/><g><rect width="333.3333333333333" height="333.3333333333333" rx="13.333333333333334" ry="13.333333333333334" y="236.37151897681446" fill="#fbf8be" transform="matrix(0.5837050129652127,0,0,0.5837050129652128,0,64.74460971399556)" x="214.1492156982422"/><path d="M385.47181415134264 478.03819060724544L326.3809056296607 478.03819060724544L326.3809056296607 474.40814013716346L344.56272363633207 465.31723113382776L344.56272363633207 340.7591515256242L326.3809056296607 331.6682425222885L326.3809056296607 328.0381920522065L435.2508540758579 328.0381920522065L435.2508540758579 367.11647450404536L431.6208036057759 367.11647450404536L417.51095525684866 340.53819193179305L365.01726889383735 340.53819193179305L365.01726889383735 394.38920151405244L401.38090490718014 394.38920151405244L412.74454116134973 375.5445047258878L416.37459163143166 375.5445047258878L416.37459163143166 425.32354465040305L412.74454116134973 425.32354465040305L401.38090490718014 406.889201393639L365.01726889383735 406.889201393639L365.01726889383735 465.31723113382776L385.47181415134264 474.40814013716346L385.47181415134264 478.03819060724544Z " fill="#234e70" transform="matrix(0.5837050129652127,0,0,0.5837050129652128,0,64.74460971399556)"/><path d="M680.1579809514117 476.0645080339494L630.8158802287733 476.0645080339494L630.8158802287733 472.91209604333636L646.6053524600176 465.0173599277142L646.6053524600176 356.8485102324194L630.8158802287733 348.9537741167973L630.8158802287733 345.8013621261843L680.1579809514117 345.8013621261843L680.1579809514117 348.9537741167973L664.3685087201674 356.8485102324194L664.3685087201674 465.0173599277142L680.1579809514117 472.91209604333636L680.1579809514117 476.0645080339494ZM728.5132396595972 476.0645080339494L664.5603946674221 409.3430229456707L719.2478896350128 355.66978227071195L705.2128032072401 348.9537741167973L705.2128032072401 345.8013621261843L746.6601678142563 345.8013621261843L746.6601678142563 348.9537741167973L734.4342917463136 353.6960982418064L682.5154368748265 404.6281110988408L744.9057820107847 467.7860000238178L756.9397721314726 472.91209604333636L756.9397721314726 476.0645080339494L728.5132396595972 476.0645080339494ZM790.6842865701213 478.0381920628549L790.6842865701213 478.0381920628549Q781.418936545537 478.0381920628549 775.2785862333865 472.6105609833647Q769.1656481994153 467.1829299038745 769.1656481994153 457.5063957066015L769.1656481994153 457.5063957066015Q769.1656481994153 447.82986150932857 776.3750773605562 440.7300814609045Q783.5845065216972 433.6303014124804 800.552706714649 429.6829333546694L800.552706714649 429.6829333546694L819.3027049892515 425.3517934023489L819.3027049892515 410.9329350800668Q819.3027049892515 404.02504097889744 814.2588458042708 399.2004800193506Q809.2423988974692 394.3485067816245 802.3345047962998 394.3485067816245L802.3345047962998 394.3485067816245Q799.5658647001962 394.3485067816245 796.7972246040927 394.9515769015679Q794.0285845079891 395.527234743332 789.5055586084138 397.72021699767146L789.5055586084138 397.72021699767146L789.5055586084138 415.86714515233064L776.8684983677826 415.86714515233064Q773.7160863771696 415.86714515233064 772.4277093027451 414.3868821306515Q771.1393322283208 412.90661910897234 771.1393322283208 409.151136998416L771.1393322283208 409.151136998416Q771.1393322283208 403.64126908438806 775.8816563533298 398.1039888921809Q780.623980478339 392.5667086999737 788.8202516539328 388.9208757021343Q796.9891105513474 385.2750427042949 807.2687148685636 385.2750427042949L807.2687148685636 385.2750427042949Q821.4682749654119 385.2750427042949 828.2939322320434 391.0864456782945Q835.0921772204958 396.92526093047337 835.0921772204958 406.7936810750011L835.0921772204958 406.7936810750011L835.0921772204958 462.851789951554Q836.462791129458 464.2224038605162 839.1491943910239 465.20924587496893Q841.8081853744104 466.1960878894217 846.139325326731 466.1960878894217L846.139325326731 466.1960878894217L853.6502895478436 466.1960878894217L854.2259473896078 466.5798597839311L854.2259473896078 467.1829299038745Q851.8684914661928 471.5140698561949 847.2358164539007 474.7761309595249Q842.6031414416085 478.0381920628549 835.8871332876938 478.0381920628549L835.8871332876938 478.0381920628549Q829.7741952537226 478.0381920628549 825.9090640304493 474.7761309595249Q822.0713450853551 471.5140698561949 820.4814329509591 466.1960878894217L820.4814329509591 466.1960878894217L819.3027049892515 466.1960878894217Q814.176608969733 471.1302979616855 806.5834079140826 474.5842450122702Q798.9627945802529 478.0381920628549 790.6842865701213 478.0381920628549ZM784.57134853615 453.55902764879045L784.57134853615 453.55902764879045Q784.57134853615 465.81231599491224 799.3739787529415 465.81231599491224L799.3739787529415 465.81231599491224Q804.1163028779507 465.81231599491224 808.7489778902428 464.82547398045955Q813.3816529025349 463.83863196600674 819.3027049892515 461.2618778171579L819.3027049892515 461.2618778171579L819.3027049892515 432.0403892780843Q803.5132327580073 435.00091532144256 796.2215667623285 438.2629764247726Q788.9024884884706 441.52503752810253 786.7369185123102 445.28051963865886Q784.57134853615 449.03600174921525 784.57134853615 453.55902764879045ZM908.9134423571985 476.0645080339494L866.6711216829843 476.0645080339494L866.6711216829843 472.91209604333636L879.1162959763609 466.5798597839311L879.1162959763609 407.7805230894538L867.2741918029276 397.5009187722375L867.2741918029276 396.13030486327534L891.7259439388129 385.2750427042949L892.9320841786996 385.2750427042949L894.9057682076051 403.4219708589541L895.4814260493692 403.4219708589541Q902.5812060977933 393.96473488711507 908.8037932444815 389.90771771658706Q915.0263803911698 385.87811282423826 920.563660583377 385.87811282423826L920.563660583377 385.87811282423826Q924.7029145884428 385.87811282423826 927.4715546845464 387.9340336876815Q930.2127825024708 390.017366829304 930.2127825024708 394.1566208343698L930.2127825024708 394.1566208343698Q930.2127825024708 395.33534879607726 929.6371246607066 398.7070590121242L929.6371246607066 398.7070590121242L928.4583966989992 405.998725007803L907.3235302228024 402.05135694999194Q900.2237501743783 405.01188299335024 894.9057682076051 412.7147331617177L894.9057682076051 412.7147331617177L894.9057682076051 466.5798597839311L908.9134423571985 472.91209604333636L908.9134423571985 476.0645080339494ZM984.1053214028634 476.0645080339494L943.4529128630454 476.0645080339494L943.4529128630454 472.91209604333636L955.8706748782427 466.5798597839311L955.8706748782427 350.5436862511934L944.0285707048095 340.26408193397714L944.0285707048095 338.8934680250149L970.4814191477794 328.0382058660345L971.6601471094868 328.0382058660345L971.6601471094868 466.5798597839311L984.1053214028634 472.91209604333636L984.1053214028634 476.0645080339494ZM1097.7840390121862 476.0645080339494L1053.9792184817552 476.0645080339494L1053.9792184817552 472.91209604333636L1069.5768047657448 465.0173599277142L1073.7160587708104 357.04039617967413L1056.7478585778586 348.9537741167973L1056.7478585778586 345.8013621261843L1093.261013112611 345.8013621261843L1138.847631724693 450.79038755268687L1184.2423643895202 345.8013621261843L1218.9737208426218 345.8013621261843L1218.9737208426218 348.9537741167973L1202.3892925441792 356.8485102324194L1205.7610027602263 465.0173599277142L1219.5767909625652 472.91209604333636L1219.5767909625652 476.0645080339494L1174.182058297738 476.0645080339494L1174.182058297738 472.91209604333636L1188.7653902890952 465.20924587496893L1186.7917062601898 367.8956583386545L1139.642587791891 477.05135004840207L1130.7610096618162 477.05135004840207L1084.3794349825362 369.2936845257959L1081.8026808336872 465.20924587496893L1097.7840390121862 472.91209604333636L1097.7840390121862 476.0645080339494ZM1262.2028835312888 478.0381920628549L1262.2028835312888 478.0381920628549Q1252.9101212285252 478.0381920628549 1246.7971831945538 472.6105609833647Q1240.6842451605826 467.1829299038745 1240.6842451605826 457.5063957066015L1240.6842451605826 457.5063957066015Q1240.6842451605826 447.82986150932857 1247.8936743217234 440.7300814609045Q1255.1031034828645 433.6303014124804 1272.0713036758164 429.6829333546694L1272.0713036758164 429.6829333546694L1290.821301950419 425.3517934023489L1290.821301950419 410.9329350800668Q1290.821301950419 404.02504097889744 1285.777442765438 399.2004800193506Q1280.7609958586365 394.3485067816245 1273.8531017574671 394.3485067816245L1273.8531017574671 394.3485067816245Q1271.0844616613635 394.3485067816245 1268.31582156526 394.9515769015679Q1265.5471814691562 395.527234743332 1261.0241555695814 397.72021699767146L1261.0241555695814 397.72021699767146L1261.0241555695814 415.86714515233064L1248.38709532895 415.86714515233064Q1245.234683338337 415.86714515233064 1243.9463062639124 414.3868821306515Q1242.657929189488 412.90661910897234 1242.657929189488 409.151136998416L1242.657929189488 409.151136998416Q1242.657929189488 403.64126908438806 1247.4002533144971 398.1039888921809Q1252.1425774395063 392.5667086999737 1260.3114363369207 388.9208757021343Q1268.5077075125148 385.2750427042949 1278.787311829731 385.2750427042949L1278.787311829731 385.2750427042949Q1292.986871926579 385.2750427042949 1299.7851169150315 391.0864456782945Q1306.6107741816631 396.92526093047337 1306.6107741816631 406.7936810750011L1306.6107741816631 406.7936810750011L1306.6107741816631 462.851789951554Q1307.9813880906252 464.2224038605162 1310.6403790740121 465.20924587496893Q1313.3267823355777 466.1960878894217 1317.6579222878984 466.1960878894217L1317.6579222878984 466.1960878894217L1325.1688865090111 466.1960878894217L1325.7445443507752 466.5798597839311L1325.7445443507752 467.1829299038745Q1323.38708842736 471.5140698561949 1318.754413415068 474.7761309595249Q1314.0943261245966 478.0381920628549 1307.4057302488611 478.0381920628549L1307.4057302488611 478.0381920628549Q1301.2653799367106 478.0381920628549 1297.4276609916167 474.7761309595249Q1293.5899420465225 471.5140698561949 1292.0000299121264 466.1960878894217L1292.0000299121264 466.1960878894217L1290.821301950419 466.1960878894217Q1285.6952059309003 471.1302979616855 1278.0745925970707 474.5842450122702Q1270.4813915414202 478.0381920628549 1262.2028835312888 478.0381920628549ZM1256.0899454973173 453.55902764879045L1256.0899454973173 453.55902764879045Q1256.0899454973173 465.81231599491224 1270.892575714109 465.81231599491224L1270.892575714109 465.81231599491224Q1275.6074875609386 465.81231599491224 1280.26757485141 464.82547398045955Q1284.9002498637021 463.83863196600674 1290.821301950419 461.2618778171579L1290.821301950419 461.2618778171579L1290.821301950419 432.0403892780843Q1275.0318297191745 435.00091532144256 1267.7127514453166 438.2629764247726Q1260.421085449638 441.52503752810253 1258.2555154734775 445.28051963865886Q1256.0899454973173 449.03600174921525 1256.0899454973173 453.55902764879045ZM1380.432039318366 476.0645080339494L1338.1897186441518 476.0645080339494L1338.1897186441518 472.91209604333636L1350.607480659349 466.5798597839311L1350.607480659349 407.7805230894538L1338.7653764859158 397.5009187722375L1338.7653764859158 396.13030486327534L1363.2445408999802 385.2750427042949L1364.4232688616878 385.2750427042949L1366.3969528905932 403.4219708589541L1367.0000230105366 403.4219708589541Q1374.0998030589606 393.96473488711507 1380.322390205649 389.90771771658706Q1386.5449773523371 385.87811282423826 1392.054845266365 385.87811282423826L1392.054845266365 385.87811282423826Q1396.2215115496099 385.87811282423826 1398.9627393675344 387.9340336876815Q1401.7313794636382 390.017366829304 1401.7313794636382 394.1566208343698L1401.7313794636382 394.1566208343698Q1401.7313794636382 395.33534879607726 1401.155721621874 398.7070590121242L1401.155721621874 398.7070590121242L1399.9495813819872 405.998725007803L1378.8421271839698 402.05135694999194Q1371.7423471355457 405.01188299335024 1366.3969528905932 412.7147331617177L1366.3969528905932 412.7147331617177L1366.3969528905932 466.5798597839311L1380.432039318366 472.91209604333636L1380.432039318366 476.0645080339494ZM1445.947384166758 476.0645080339494L1411.407913660911 476.0645080339494L1411.407913660911 472.91209604333636L1422.0712898726367 466.00420194216696L1447.9210681956633 432.0403892780843L1421.6601056999482 396.5140767577847L1412.394755675364 390.40113872381346L1412.394755675364 387.24872673320044L1453.2390501624366 387.24872673320044L1453.2390501624366 390.40113872381346L1439.8344461327865 396.32219081053L1439.8344461327865 397.5009187722375L1458.1732602347004 422.3912673589906L1474.1820306913785 398.7070590121242L1474.1820306913785 397.5009187722375L1462.9155843597096 390.40113872381346L1462.9155843597096 387.24872673320044L1495.6732567839056 387.24872673320044L1495.6732567839056 390.40113872381346L1485.2291787976137 397.3090328249828L1462.1206282925116 427.70924932576384L1490.9583449370755 466.79915800936504L1499.0449669999525 472.91209604333636L1499.0449669999525 476.0645080339494L1460.7500143835493 476.0645080339494L1460.7500143835493 472.91209604333636L1472.7840045042371 466.99104395661976L1472.7840045042371 465.81231599491224L1451.8684362534743 437.5776694702915L1433.721508098815 464.60617575502556L1433.721508098815 465.81231599491224L1445.947384166758 472.91209604333636L1445.947384166758 476.0645080339494Z " fill="#fbf8be" transform="matrix(0.5837050129652127,0,0,0.5837050129652128,0,64.74460971399556)"/></g></svg>